# xmcd
#
# Track frame offsets: 
#        150
#        31842
#        54403
#        72470
#        89712
#        112752
#        134077
#
# Disc length: 2026 seconds
#
# Revision: 2
# Processed by: cddbd v1.5.2PL0 Copyright (c) Steve Scherf et al.
# Submitted via: ExactAudioCopy v1.1
#
DISCID=6007e807
DTITLE=Cuby and Blizzards - Simple Man
DYEAR=1970
DGENRE=Blues
TTITLE0=Simple Man
TTITLE1=The Faker
TTITLE2=When I'm Honest
TTITLE3=Back Street
TTITLE4=Seasons Come And Seasons Go
TTITLE5=Gave You My Word
TTITLE6=Easy To Leave, Hard To Forget
EXTD=YEAR: 1970
EXTT0=
EXTT1=
EXTT2=
EXTT3=
EXTT4=
EXTT5=
EXTT6=
PLAYORDER=
